<svg width="22" height="23" viewBox="0 0 22 23" fill="none" xmlns="http://www.w3.org/2000/svg">
<g id="globe">
<ellipse id="Ellipse 870" cx="11" cy="11.5" rx="4" ry="10" stroke="#14171F" stroke-width="1.5"/>
<path id="Vector" d="M20.9962 11.2205C19.1938 12.7016 15.3949 13.7222 11 13.7222C6.60511 13.7222 2.80619 12.7016 1.00383 11.2205M20.9962 11.2205C20.8482 5.82691 16.4294 1.5 11 1.5C5.57061 1.5 1.15183 5.82691 1.00383 11.2205M20.9962 11.2205C20.9987 11.3134 21 11.4065 21 11.5C21 17.0228 16.5228 21.5 11 21.5C5.47715 21.5 1 17.0228 1 11.5C1 11.4065 1.00128 11.3134 1.00383 11.2205" stroke="#14171F" stroke-width="1.5"/>
</g>
</svg>
